<svg width="12" height="12" viewBox="0 0 12 12" fill="none" xmlns="http://www.w3.org/2000/svg">
<path d="M11.452 0H0.547023C0.401685 6.13774e-09 0.262299 0.0577354 0.159529 0.160505C0.0567588 0.263275 -0.000976562 0.402661 -0.000976562 0.548C-0.000976562 0.693338 0.0567588 0.832724 0.159529 0.935494C0.262299 1.03826 0.401685 1.096 0.547023 1.096H10.132L0.162024 11.066C0.111333 11.1167 0.0711236 11.1769 0.0436902 11.2431C0.0162568 11.3093 0.00213671 11.3803 0.00213671 11.452C0.00213671 11.5237 0.0162568 11.5947 0.0436902 11.6609C0.0711236 11.7271 0.111333 11.7873 0.162024 11.838C0.212714 11.8887 0.272892 11.9289 0.339122 11.9563C0.405352 11.9838 0.476336 11.9979 0.548023 11.9979C0.61971 11.9979 0.690695 11.9838 0.756925 11.9563C0.823155 11.9289 0.883333 11.8887 0.934023 11.838L10.904 1.867V11.453C10.904 11.5983 10.9618 11.7377 11.0645 11.8405C11.1673 11.9433 11.3067 12.001 11.452 12.001C11.5974 12.001 11.7367 11.9433 11.8395 11.8405C11.9423 11.7377 12 11.5983 12 11.453V0.546C11.9995 0.401008 11.9415 0.262135 11.8388 0.159798C11.7361 0.0574599 11.597 -9.65631e-07 11.452 0Z" fill="#ffff83"/>
</svg>
